<?xml version="1.0" encoding="utf-8" ?>
<svg baseProfile="full" height="350" version="1.1" width="580" xmlns="http://www.w3.org/2000/svg" xmlns:ev="http://www.w3.org/2001/xml-events" xmlns:xlink="http://www.w3.org/1999/xlink"><defs /><polyline fill="none" points="215,94 215,96 217,96 217,94" stroke="black" stroke-width="1" /><polyline fill="none" points="266,93 266,95 268,95 268,93" stroke="black" stroke-width="1" /><polyline fill="none" points="199,93 199,95 201,95 201,93" stroke="black" stroke-width="1" /><polyline fill="none" points="213,88 213,90 215,90 215,88" stroke="black" stroke-width="1" /><polyline fill="none" points="162,87 162,89 164,89 164,87" stroke="black" stroke-width="1" /><polyline fill="none" points="141,84 141,86 143,86 143,84" stroke="black" stroke-width="1" /><polyline fill="none" points="206,69 206,71 208,71 208,70 207,69" stroke="black" stroke-width="1" /><polyline fill="none" points="209,68 210,68 211,69 210,70 211,70 211,69 210,68" stroke="black" stroke-width="1" /><polyline fill="none" points="280,65 280,67 282,67 282,65" stroke="black" stroke-width="1" /><polyline fill="none" points="232,64 233,64" stroke="black" stroke-width="1" /><polyline fill="none" points="189,64 189,66 191,66 191,64" stroke="black" stroke-width="1" /><polyline fill="none" points="240,63" stroke="black" stroke-width="1" /><polyline fill="none" points="219,63" stroke="black" stroke-width="1" /><polyline fill="none" points="232,62 234,62" stroke="black" stroke-width="1" /><polyline fill="none" points="222,62 223,63 222,64 223,64 223,62" stroke="black" stroke-width="1" /><polyline fill="none" points="260,61 260,63 262,63 262,61" stroke="black" stroke-width="1" /><polyline fill="none" points="246,61 246,63 250,63 250,62 249,61" stroke="black" stroke-width="1" /><polyline fill="none" points="242,61" stroke="black" stroke-width="1" /><polyline fill="none" points="216,61 215,62 210,62 210,63 211,62 213,62 214,63 213,64 212,64 212,66 213,67 214,67 215,66 216,66 216,65 215,66 214,66 213,67 212,66 212,65 213,64 214,64 214,63 216,61 220,61" stroke="black" stroke-width="1" /><polyline fill="none" points="142,61 142,63 144,63 144,61" stroke="black" stroke-width="1" /><polyline fill="none" points="302,60 302,62 304,62 304,60" stroke="black" stroke-width="1" /><polyline fill="none" points="227,60" stroke="black" stroke-width="1" /><polyline fill="none" points="217,58 216,59 214,59 216,59 217,58 218,58" stroke="black" stroke-width="1" /><polyline fill="none" points="251,57 251,60 252,59 255,62 254,63 253,63 252,62 253,63 255,63 255,61 254,61 253,60 253,57" stroke="black" stroke-width="1" /><polyline fill="none" points="244,57 244,59 246,59 246,57" stroke="black" stroke-width="1" /><polyline fill="none" points="233,56 233,58 235,58 235,57 234,56" stroke="black" stroke-width="1" /><polyline fill="none" points="142,56 142,58 144,58 144,56" stroke="black" stroke-width="1" /><polyline fill="none" points="136,55 135,56 135,57 135,56 136,55 137,56 137,57 137,56" stroke="black" stroke-width="1" /><polyline fill="none" points="238,54 238,55" stroke="black" stroke-width="1" /><polyline fill="none" points="235,54 236,55 236,54" stroke="black" stroke-width="1" /><polyline fill="none" points="213,54" stroke="black" stroke-width="1" /><polyline fill="none" points="274,53 274,55 276,55 276,53" stroke="black" stroke-width="1" /><polyline fill="none" points="241,53 240,54 240,55 240,54 241,53 242,54 242,55 242,54" stroke="black" stroke-width="1" /><polyline fill="none" points="215,53 216,53 217,54 217,56 217,54 218,53 219,54 219,55 219,54 218,53 217,54 216,53" stroke="black" stroke-width="1" /><polyline fill="none" points="280,51 280,52 279,53 278,53 278,55 280,55 280,54 281,53 282,53 282,51" stroke="black" stroke-width="1" /><polyline fill="none" points="249,51 248,52 248,53 250,53 250,51" stroke="black" stroke-width="1" /><polyline fill="none" points="232,51 232,53 233,53 232,52 233,51 234,51 235,52 237,52 235,52 234,51" stroke="black" stroke-width="1" /><polyline fill="none" points="142,51 142,53 144,53 144,52 143,53 142,52" stroke="black" stroke-width="1" /><polyline fill="none" points="228,50 228,52 230,52 230,50" stroke="black" stroke-width="1" /><polyline fill="none" points="272,49 272,51 274,51 274,49" stroke="black" stroke-width="1" /><polyline fill="none" points="263,49 263,51 265,51 265,49" stroke="black" stroke-width="1" /><polyline fill="none" points="253,49 252,50 253,51 253,53 254,54 254,55 256,55 256,53 255,52 256,53 256,54 255,55 253,53 253,51 252,50 253,49 254,49" stroke="black" stroke-width="1" /><polyline fill="none" points="245,49 245,51 246,51 247,50 247,49" stroke="black" stroke-width="1" /><polyline fill="none" points="224,49 223,50 223,51 223,50 224,49 225,50 225,51 226,52 226,53 225,54 224,53 223,54 222,54 222,56 223,57 223,58 226,58 227,57 229,59 229,60 230,61 230,62 229,63 228,62 228,63 229,63 230,62 230,61 229,60 229,59 227,57 227,56 227,57 226,58 225,57 225,56 224,55 226,53 226,52 225,51 225,50" stroke="black" stroke-width="1" /><polyline fill="none" points="212,49 211,50 210,50 209,51 211,53 211,55 210,56 211,57 210,58 209,58 208,57 208,54 207,53 206,54 206,57 208,57 209,58 211,58 211,57 210,56 211,55 211,53 209,51 210,50 211,50 212,51 213,51 212,51 211,50 212,49 213,49" stroke="black" stroke-width="1" /><polyline fill="none" points="143,48 143,49 144,50 145,50 145,48" stroke="black" stroke-width="1" /><polyline fill="none" points="206,47 206,49 207,49 208,48 208,47" stroke="black" stroke-width="1" /><polyline fill="none" points="191,47 191,49 193,49 193,47" stroke="black" stroke-width="1" /><polyline fill="none" points="175,47 175,49 177,49 177,47" stroke="black" stroke-width="1" /><polyline fill="none" points="163,47 163,49 165,49 165,47" stroke="black" stroke-width="1" /><polyline fill="none" points="148,47 148,49 152,49 152,47" stroke="black" stroke-width="1" /><polyline fill="none" points="158,46 158,47 156,49 155,49 154,48 155,47 154,47 154,49 156,49 157,48 158,48" stroke="black" stroke-width="1" /><polyline fill="none" points="200,45 200,47 198,49 197,48 197,47 198,46 197,47 197,49 199,49 199,48 200,47" stroke="black" stroke-width="1" /><polyline fill="none" points="181,45 181,46 180,47 179,46 179,47 181,47" stroke="black" stroke-width="1" /><polyline fill="none" points="196,44" stroke="black" stroke-width="1" /><polyline fill="none" points="254,43 254,44 256,44 257,43 258,43 257,43 256,44 255,44" stroke="black" stroke-width="1" /><polyline fill="none" points="242,43 244,43" stroke="black" stroke-width="1" /><polyline fill="none" points="216,43 217,44 218,44 219,43 220,44 222,44 220,44 219,43 218,44 217,44" stroke="black" stroke-width="1" /><polyline fill="none" points="176,43 176,45 177,45 178,44 177,43" stroke="black" stroke-width="1" /><polyline fill="none" points="294,42 294,44 296,44 296,42" stroke="black" stroke-width="1" /><polyline fill="none" points="236,42" stroke="black" stroke-width="1" /><polyline fill="none" points="225,42 226,43 225,44 224,44 226,44 226,43" stroke="black" stroke-width="1" /><polyline fill="none" points="206,42 206,44 211,44 211,42 211,43 210,44 209,44 207,42" stroke="black" stroke-width="1" /><polyline fill="none" points="198,42" stroke="black" stroke-width="1" /><polyline fill="none" points="255,41" stroke="black" stroke-width="1" /><polyline fill="none" points="248,41 248,42" stroke="black" stroke-width="1" /><polyline fill="none" points="243,41" stroke="black" stroke-width="1" /><polyline fill="none" points="234,41 234,42" stroke="black" stroke-width="1" /><polyline fill="none" points="181,41" stroke="black" stroke-width="1" /><polyline fill="none" points="155,41 155,45 156,45 157,44 157,41" stroke="black" stroke-width="1" /><polyline fill="none" points="317,40 317,42 319,42 319,40" stroke="black" stroke-width="1" /><polyline fill="none" points="312,40 312,42 314,42 314,40" stroke="black" stroke-width="1" /><polyline fill="none" points="236,40" stroke="black" stroke-width="1" /><polyline fill="none" points="228,40 228,42 228,41 229,40 231,40 232,41 231,42 232,42 232,40" stroke="black" stroke-width="1" /><polyline fill="none" points="222,40 223,41" stroke="black" stroke-width="1" /><polyline fill="none" points="217,40 218,40" stroke="black" stroke-width="1" /><polyline fill="none" points="194,40 194,41 193,42 192,42 193,42 194,43 193,44 190,44 189,43 188,44 187,44 186,43 188,41 187,42 186,42 186,44 188,44 189,43 190,44 194,44 194,43 196,41 196,40" stroke="black" stroke-width="1" /><polyline fill="none" points="147,40 147,41 148,42 148,43 150,43 150,42 149,43 147,41" stroke="black" stroke-width="1" /><polyline fill="none" points="331,39 331,41 333,41 333,39" stroke="black" stroke-width="1" /><polyline fill="none" points="280,39 280,41 282,41 282,40 281,39" stroke="black" stroke-width="1" /><polyline fill="none" points="261,39 260,40 260,41 260,40 261,39 262,40 262,42 262,40" stroke="black" stroke-width="1" /><polyline fill="none" points="250,39 252,39 253,40 252,41 250,41 250,42 251,41 252,41 253,40 252,39" stroke="black" stroke-width="1" /><polyline fill="none" points="244,39 246,41 246,42 246,40 245,40" stroke="black" stroke-width="1" /><polyline fill="none" points="241,39 239,41 240,42 240,43 240,42 239,41" stroke="black" stroke-width="1" /><polyline fill="none" points="212,39 211,40 210,40 209,41 210,40 211,40" stroke="black" stroke-width="1" /><polyline fill="none" points="151,39 151,40 152,41 153,41 153,39" stroke="black" stroke-width="1" /><polyline fill="none" points="257,38 256,39 257,40 256,39 257,38 258,38" stroke="black" stroke-width="1" /><polyline fill="none" points="222,38" stroke="black" stroke-width="1" /><polyline fill="none" points="220,38 220,39" stroke="black" stroke-width="1" /><polyline fill="none" points="214,38 215,39 214,40 215,39" stroke="black" stroke-width="1" /><polyline fill="none" points="189,38 188,39" stroke="black" stroke-width="1" /><polyline fill="none" points="160,37 160,39 162,39 162,38 161,37" stroke="black" stroke-width="1" /><polyline fill="none" points="283,36 283,37 284,38 285,38 285,36" stroke="black" stroke-width="1" /><polyline fill="none" points="222,36" stroke="black" stroke-width="1" /><polyline fill="none" points="145,36 145,38 148,38 149,39 149,40 149,36" stroke="black" stroke-width="1" /><polyline fill="none" points="163,35 163,36 164,37 165,37 165,35" stroke="black" stroke-width="1" /><polyline fill="none" points="330,34 330,36 332,36 332,34" stroke="black" stroke-width="1" /><polyline fill="none" points="209,34 210,34" stroke="black" stroke-width="1" /><polyline fill="none" points="199,34 199,36 201,38 202,38 201,38 199,36 199,35 200,34 202,36 201,35 201,34" stroke="black" stroke-width="1" /><polyline fill="none" points="120,34 120,36 122,36 122,34" stroke="black" stroke-width="1" /><polyline fill="none" points="296,33" stroke="black" stroke-width="1" /><polyline fill="none" points="251,33 251,35 252,35 251,34 252,33" stroke="black" stroke-width="1" /><polyline fill="none" points="213,33" stroke="black" stroke-width="1" /><polyline fill="none" points="258,32 260,32 261,33 260,32" stroke="black" stroke-width="1" /><polyline fill="none" points="210,32" stroke="black" stroke-width="1" /><polyline fill="none" points="295,31 294,32 294,33 294,32 295,31 296,31" stroke="black" stroke-width="1" /><polyline fill="none" points="279,31 279,33 281,33 280,33 279,32 280,31 282,31 283,32 283,33 283,32 282,31" stroke="black" stroke-width="1" /><polyline fill="none" points="268,31 268,33 267,34 265,34 267,34 268,33" stroke="black" stroke-width="1" /><polyline fill="none" points="231,31 231,33 233,33 233,31" stroke="black" stroke-width="1" /><polyline fill="none" points="226,31 226,33 228,33 228,31" stroke="black" stroke-width="1" /><polyline fill="none" points="218,31 218,32 216,34 216,37 218,37 217,37 216,36 216,34 217,33 218,34 219,33 218,32 219,31 220,31 222,33 220,35 220,36 220,35 221,34 222,34 222,32 221,32 220,31" stroke="black" stroke-width="1" /><polyline fill="none" points="214,31" stroke="black" stroke-width="1" /><polyline fill="none" points="195,31 195,33 197,33 197,31" stroke="black" stroke-width="1" /><polyline fill="none" points="171,31 171,33 173,33 173,31" stroke="black" stroke-width="1" /><polyline fill="none" points="163,31 163,33 165,33 165,31" stroke="black" stroke-width="1" /><polyline fill="none" points="0,31 1,31 2,32 3,32 2,32 1,31" stroke="black" stroke-width="1" /><polyline fill="none" points="211,30 212,31" stroke="black" stroke-width="1" /><polyline fill="none" points="156,30 156,31" stroke="black" stroke-width="1" /><polyline fill="none" points="6,30 5,31 6,31" stroke="black" stroke-width="1" /><polyline fill="none" points="272,29 271,30 271,36 268,39 267,39 267,42 266,43 265,42 264,42 265,42 266,43 265,44 264,44 266,44 266,43 267,42 269,42 270,43 271,43 272,44 274,44 274,42 274,43 273,44 272,44 271,43 270,43 269,42 269,41 268,42 267,41 267,40 270,37 271,38 271,39 272,39 273,40 273,39 272,39 270,37 271,36 273,36 273,30" stroke="black" stroke-width="1" /><polyline fill="none" points="243,29" stroke="black" stroke-width="1" /><polyline fill="none" points="148,29 148,31 150,31 150,29" stroke="black" stroke-width="1" /><polyline fill="none" points="4,29" stroke="black" stroke-width="1" /><polyline fill="none" points="261,28" stroke="black" stroke-width="1" /><polyline fill="none" points="248,28 249,29 249,32 248,33 247,32 247,31 247,32 246,33 246,34 246,33 247,32 248,33 248,34 248,33 249,32 249,29" stroke="black" stroke-width="1" /><polyline fill="none" points="246,28" stroke="black" stroke-width="1" /><polyline fill="none" points="2,28 2,29" stroke="black" stroke-width="1" /><polyline fill="none" points="255,27 254,28 254,34 256,34 256,28" stroke="black" stroke-width="1" /><polyline fill="none" points="210,27 210,28" stroke="black" stroke-width="1" /><polyline fill="none" points="269,26 269,27 268,28 269,28" stroke="black" stroke-width="1" /><polyline fill="none" points="261,26" stroke="black" stroke-width="1" /><polyline fill="none" points="259,26 259,29 258,30 260,30 259,29" stroke="black" stroke-width="1" /><polyline fill="none" points="247,26 248,26" stroke="black" stroke-width="1" /><polyline fill="none" points="236,26 235,27 235,28 235,27 236,26 237,27 237,28 237,27" stroke="black" stroke-width="1" /><polyline fill="none" points="214,26 214,27 213,28 212,28 213,28 214,27" stroke="black" stroke-width="1" /><polyline fill="none" points="6,26 5,27 6,26 7,27" stroke="black" stroke-width="1" /><polyline fill="none" points="207,25 206,26 206,27 206,26 207,25 208,26 208,27 208,26" stroke="black" stroke-width="1" /><polyline fill="none" points="162,25 163,26 163,28 165,28 165,27 164,28 163,27 163,26" stroke="black" stroke-width="1" /><polyline fill="none" points="160,25 159,26 160,27 160,28 158,30 158,31 158,30 159,29 160,29" stroke="black" stroke-width="1" /><polyline fill="none" points="2,25 0,27 0,28 0,27" stroke="black" stroke-width="1" /><polyline fill="none" points="287,24 287,28 289,28 289,24" stroke="black" stroke-width="1" /><polyline fill="none" points="271,24 271,26 273,26 273,24 273,25 272,26 271,25" stroke="black" stroke-width="1" /><polyline fill="none" points="267,24" stroke="black" stroke-width="1" /><polyline fill="none" points="243,24 242,25 242,27 239,30 239,32 241,32 240,32 239,31 239,30 242,27 242,25 243,24 246,24" stroke="black" stroke-width="1" /><polyline fill="none" points="240,24 240,25" stroke="black" stroke-width="1" /><polyline fill="none" points="238,24 238,25" stroke="black" stroke-width="1" /><polyline fill="none" points="202,24 202,29 203,29 204,30 204,33 207,33 208,32 208,31 207,31 204,28 204,26 203,26 202,25" stroke="black" stroke-width="1" /><polyline fill="none" points="127,24 127,34 129,34 129,24 129,33 128,34 127,33" stroke="black" stroke-width="1" /><polyline fill="none" points="265,23 265,24" stroke="black" stroke-width="1" /><polyline fill="none" points="263,23 263,29 262,30 262,31 263,32 263,33 263,32 264,31 265,31 264,31 263,32 262,31 262,30 263,29" stroke="black" stroke-width="1" /><polyline fill="none" points="261,23" stroke="black" stroke-width="1" /><polyline fill="none" points="259,23 258,24" stroke="black" stroke-width="1" /><polyline fill="none" points="248,23" stroke="black" stroke-width="1" /><polyline fill="none" points="167,23 167,24" stroke="black" stroke-width="1" /><polyline fill="none" points="163,23 164,24 165,24 165,23 164,24" stroke="black" stroke-width="1" /><polyline fill="none" points="232,22 231,23 231,24 231,23 232,22 233,23 233,24 233,23" stroke="black" stroke-width="1" /><polyline fill="none" points="222,22 222,23 221,24 222,24" stroke="black" stroke-width="1" /><polyline fill="none" points="205,22 205,24" stroke="black" stroke-width="1" /><polyline fill="none" points="202,22" stroke="black" stroke-width="1" /><polyline fill="none" points="129,22" stroke="black" stroke-width="1" /><polyline fill="none" points="23,22" stroke="black" stroke-width="1" /><polyline fill="none" points="21,22" stroke="black" stroke-width="1" /><polyline fill="none" points="310,21 309,22 308,22 308,24 310,24 311,23 312,23 312,21" stroke="black" stroke-width="1" /><polyline fill="none" points="295,21 294,22 294,23 294,22 295,21 296,22 296,23 296,22" stroke="black" stroke-width="1" /><polyline fill="none" points="147,21 147,23 148,24 148,25 149,26 149,27 151,27 151,25 150,24 150,23 149,22 149,21" stroke="black" stroke-width="1" /><polyline fill="none" points="120,21 120,23 122,23 122,21" stroke="black" stroke-width="1" /><polyline fill="none" points="273,20" stroke="black" stroke-width="1" /><polyline fill="none" points="265,20 266,21" stroke="black" stroke-width="1" /><polyline fill="none" points="255,20 254,21 254,23 256,23 256,21" stroke="black" stroke-width="1" /><polyline fill="none" points="219,20 220,20" stroke="black" stroke-width="1" /><polyline fill="none" points="213,20 214,20 215,21 213,23 212,23 213,23 215,21 214,20" stroke="black" stroke-width="1" /><polyline fill="none" points="203,20" stroke="black" stroke-width="1" /><polyline fill="none" points="158,20 157,21" stroke="black" stroke-width="1" /><polyline fill="none" points="143,20 143,22 145,22 145,20" stroke="black" stroke-width="1" /><polyline fill="none" points="304,19 304,21 306,21 306,20 305,19" stroke="black" stroke-width="1" /><polyline fill="none" points="271,19 271,20" stroke="black" stroke-width="1" /><polyline fill="none" points="273,18" stroke="black" stroke-width="1" /><polyline fill="none" points="229,18 229,20 231,20 231,18" stroke="black" stroke-width="1" /><polyline fill="none" points="224,18" stroke="black" stroke-width="1" /><polyline fill="none" points="210,18 209,19 210,20 210,24 210,20 209,19 210,18 211,18" stroke="black" stroke-width="1" /><polyline fill="none" points="156,18 156,19 155,20 155,22 156,23 156,28 157,28 156,27 156,26 159,23 157,25 156,24 156,23 155,22 155,20 157,18 158,18" stroke="black" stroke-width="1" /><polyline fill="none" points="17,18 17,19 19,19 19,18 18,19" stroke="black" stroke-width="1" /><polyline fill="none" points="307,17 307,18 308,19 311,19 311,17" stroke="black" stroke-width="1" /><polyline fill="none" points="296,17 296,18" stroke="black" stroke-width="1" /><polyline fill="none" points="294,17 294,18" stroke="black" stroke-width="1" /><polyline fill="none" points="288,17 287,18 287,19 288,20 288,21 288,20 289,19 290,20 290,21 290,20 289,19 289,18" stroke="black" stroke-width="1" /><polyline fill="none" points="268,17 267,18 268,19 269,19 269,17" stroke="black" stroke-width="1" /><polyline fill="none" points="254,17 255,17" stroke="black" stroke-width="1" /><polyline fill="none" points="215,17 215,18" stroke="black" stroke-width="1" /><polyline fill="none" points="199,17 199,19 201,19 201,17" stroke="black" stroke-width="1" /><polyline fill="none" points="259,16 260,17 260,18 261,17 260,17" stroke="black" stroke-width="1" /><polyline fill="none" points="257,16 257,19 258,20 257,19" stroke="black" stroke-width="1" /><polyline fill="none" points="250,16 249,17 248,17 250,17" stroke="black" stroke-width="1" /><polyline fill="none" points="224,16" stroke="black" stroke-width="1" /><polyline fill="none" points="222,16 220,18" stroke="black" stroke-width="1" /><polyline fill="none" points="217,16 217,21 218,22 217,23 217,25 219,25 219,24 218,25 217,24 217,23 218,22 219,22 218,22 217,21" stroke="black" stroke-width="1" /><polyline fill="none" points="267,15 268,15" stroke="black" stroke-width="1" /><polyline fill="none" points="247,15" stroke="black" stroke-width="1" /><polyline fill="none" points="206,15 205,16 205,17 205,16" stroke="black" stroke-width="1" /><polyline fill="none" points="75,15 74,16 74,17 74,16 75,15 76,16 76,17 76,16" stroke="black" stroke-width="1" /><polyline fill="none" points="21,15 20,16 21,17 22,17 21,17 20,16 21,15 22,15" stroke="black" stroke-width="1" /><polyline fill="none" points="249,14" stroke="black" stroke-width="1" /><polyline fill="none" points="208,14 208,16 207,17 207,18 207,17 208,16" stroke="black" stroke-width="1" /><polyline fill="none" points="193,14 193,16 195,16 195,15 194,14" stroke="black" stroke-width="1" /><polyline fill="none" points="156,14 156,16 158,16 158,14" stroke="black" stroke-width="1" /><polyline fill="none" points="46,14 45,15 44,15 46,15" stroke="black" stroke-width="1" /><polyline fill="none" points="294,13 294,15 296,15 296,13" stroke="black" stroke-width="1" /><polyline fill="none" points="288,13 288,15 290,15 290,13" stroke="black" stroke-width="1" /><polyline fill="none" points="258,13 257,14 258,13 259,14" stroke="black" stroke-width="1" /><polyline fill="none" points="236,13 235,14 235,15 237,15 238,14 237,15 236,15 235,14" stroke="black" stroke-width="1" /><polyline fill="none" points="224,13 225,13 226,14 227,13 228,13 229,14 227,16 226,16 227,16 228,15 229,15 229,13 227,13 226,14 225,13" stroke="black" stroke-width="1" /><polyline fill="none" points="164,13 163,14 163,20 162,21 161,20 160,20 161,20 162,21 164,19 165,20 165,19 166,18 167,18 167,16 167,17 165,19 164,19 163,18 165,16 164,17 163,16 163,14 164,13 165,14 165,13" stroke="black" stroke-width="1" /><polyline fill="none" points="285,12 284,13 285,12 286,13 286,14 286,13" stroke="black" stroke-width="1" /><polyline fill="none" points="276,12 278,12 280,14 278,16 277,15 277,14 276,14 277,15 277,16 279,16 279,15 280,14 282,14 280,14 279,13 280,12 282,12" stroke="black" stroke-width="1" /><polyline fill="none" points="272,12 271,13 271,16 271,13 272,12 273,12 274,13 273,14 273,15 274,14 274,12" stroke="black" stroke-width="1" /><polyline fill="none" points="268,12" stroke="black" stroke-width="1" /><polyline fill="none" points="265,12 264,13 264,14 263,15 262,14 261,14 262,14 263,15 263,16 263,15 264,14 265,15 264,14 264,13 265,12 266,13" stroke="black" stroke-width="1" /><polyline fill="none" points="248,12 247,13 248,12 250,12 251,13 251,14 252,15 251,14 251,13 252,12 254,12 255,13 255,12 252,12 251,13 250,12" stroke="black" stroke-width="1" /><polyline fill="none" points="243,12 243,13 242,14 242,15 241,16 242,17 241,18 242,19 241,20 239,20 239,21 240,22 239,21 240,20 241,20 242,21 242,22 242,21 241,20 242,19 243,19 242,19 241,18 242,17 243,17 244,16 244,15 245,14 245,12" stroke="black" stroke-width="1" /><polyline fill="none" points="238,12 240,12" stroke="black" stroke-width="1" /><polyline fill="none" points="220,12 219,13 218,13 218,14 219,15 220,15 219,15 218,14 220,12 221,12 222,13 222,12" stroke="black" stroke-width="1" /><polyline fill="none" points="211,12 211,15 212,16 213,16 215,14 215,13 214,12" stroke="black" stroke-width="1" /><polyline fill="none" points="196,12 196,13 197,14 198,14 198,12" stroke="black" stroke-width="1" /><polyline fill="none" points="178,12 178,14 180,14 180,12" stroke="black" stroke-width="1" /><polyline fill="none" points="135,12 135,14 137,14 137,12" stroke="black" stroke-width="1" /><polyline fill="none" points="129,12 129,14 131,14 131,12" stroke="black" stroke-width="1" /><polyline fill="none" points="232,11 231,12 231,15 233,15 233,13 233,14 232,15 231,14 231,12 232,11 233,11" stroke="black" stroke-width="1" /><polyline fill="none" points="205,11 204,12 203,12 202,13 203,14 204,14 205,13 206,13 205,13 204,12 205,11 206,11" stroke="black" stroke-width="1" /><polyline fill="none" points="184,11 184,16 188,16 187,15 188,14 188,12 187,12 186,11" stroke="black" stroke-width="1" /><polyline fill="none" points="171,11 170,12 171,13 172,13 173,14 173,15 172,16 171,16 169,14 168,14 169,14 170,15 169,16 173,16 173,14 172,13 171,13 170,12 171,11 172,11" stroke="black" stroke-width="1" /><polyline fill="none" points="141,11 141,13 143,13 143,11" stroke="black" stroke-width="1" /><polyline fill="none" points="4,11 4,15 4,12 5,11 6,12 6,15 6,11" stroke="black" stroke-width="1" /><polyline fill="none" points="0,11 0,13 1,13 2,12 2,11" stroke="black" stroke-width="1" /><polyline fill="none" points="78,10 77,11" stroke="black" stroke-width="1" /><polyline fill="none" points="294,9 294,11 296,11 296,10 295,9" stroke="black" stroke-width="1" /><polyline fill="none" points="120,8 120,9 119,10 119,12 121,12 121,11 122,10 122,8" stroke="black" stroke-width="1" /><polyline fill="none" points="52,8" stroke="black" stroke-width="1" /><polyline fill="none" points="303,7 303,9 305,9 305,7" stroke="black" stroke-width="1" /><polyline fill="none" points="45,7 43,9 42,9 41,10 41,13 42,14 41,13 41,10 42,9 44,9 45,10 45,11 45,10 46,9 46,8" stroke="black" stroke-width="1" /><polyline fill="none" points="15,7 14,8" stroke="black" stroke-width="1" /><polyline fill="none" points="60,6 61,7 60,8 59,8 61,8 61,6" stroke="black" stroke-width="1" /><polyline fill="none" points="48,6 48,8 50,8 50,6" stroke="black" stroke-width="1" /><polyline fill="none" points="297,5 296,6 296,7 296,6 297,5 298,6 299,6 300,7 299,8 300,8 300,6 298,6" stroke="black" stroke-width="1" /><polyline fill="none" points="269,5" stroke="black" stroke-width="1" /><polyline fill="none" points="265,5 266,5" stroke="black" stroke-width="1" /><polyline fill="none" points="262,5" stroke="black" stroke-width="1" /><polyline fill="none" points="70,5 70,7 72,7 72,5" stroke="black" stroke-width="1" /><polyline fill="none" points="58,5 58,6 57,7 58,6" stroke="black" stroke-width="1" /><polyline fill="none" points="42,5 42,6 43,6 44,5 43,6" stroke="black" stroke-width="1" /><polyline fill="none" points="16,5" stroke="black" stroke-width="1" /><polyline fill="none" points="7,5 7,6 6,7 4,7 3,6 2,6 1,7 0,7 1,7 2,6 3,7 6,7 7,6" stroke="black" stroke-width="1" /><polyline fill="none" points="0,5" stroke="black" stroke-width="1" /><polyline fill="none" points="561,4 561,6 563,6 563,4" stroke="black" stroke-width="1" /><polyline fill="none" points="556,4 556,6 558,6 558,4" stroke="black" stroke-width="1" /><polyline fill="none" points="253,4 253,5" stroke="black" stroke-width="1" /><polyline fill="none" points="251,4 251,5" stroke="black" stroke-width="1" /><polyline fill="none" points="210,4 210,6 212,6 211,6 210,5" stroke="black" stroke-width="1" /><polyline fill="none" points="13,4 12,5 12,6 13,6 14,5" stroke="black" stroke-width="1" /><polyline fill="none" points="5,4" stroke="black" stroke-width="1" /><polyline fill="none" points="523,3 523,5 528,5 528,3" stroke="black" stroke-width="1" /><polyline fill="none" points="506,3 505,4 506,5 507,5 506,5 505,4 506,3 507,3" stroke="black" stroke-width="1" /><polyline fill="none" points="479,3 479,5 481,5 481,3" stroke="black" stroke-width="1" /><polyline fill="none" points="444,3 444,5 446,5 446,3" stroke="black" stroke-width="1" /><polyline fill="none" points="316,3 315,4 316,4" stroke="black" stroke-width="1" /><polyline fill="none" points="312,3 311,4 311,5 310,6 310,8 312,8 312,7 311,8 310,7 310,6 311,5 311,4 312,3 313,4 313,5 313,4" stroke="black" stroke-width="1" /><polyline fill="none" points="270,3 271,4 271,5 271,4" stroke="black" stroke-width="1" /><polyline fill="none" points="259,3 258,4 257,4 258,4 260,6 260,8 262,8 262,7 261,8 260,7 260,5 259,5 258,4 259,3 260,3" stroke="black" stroke-width="1" /><polyline fill="none" points="236,3 236,5 238,5 238,3 238,4 237,5 236,4" stroke="black" stroke-width="1" /><polyline fill="none" points="217,3 216,4 215,4 217,4" stroke="black" stroke-width="1" /><polyline fill="none" points="200,3 201,3" stroke="black" stroke-width="1" /><polyline fill="none" points="192,3 192,5 194,5 194,3" stroke="black" stroke-width="1" /><polyline fill="none" points="57,3 58,3" stroke="black" stroke-width="1" /><polyline fill="none" points="483,2 483,4 485,4 485,2" stroke="black" stroke-width="1" /><polyline fill="none" points="472,2 472,4 474,4 474,2" stroke="black" stroke-width="1" /><polyline fill="none" points="390,2 390,4 392,4 392,2" stroke="black" stroke-width="1" /><polyline fill="none" points="257,2" stroke="black" stroke-width="1" /><polyline fill="none" points="255,2 255,4" stroke="black" stroke-width="1" /><polyline fill="none" points="210,2" stroke="black" stroke-width="1" /><polyline fill="none" points="152,2 151,3" stroke="black" stroke-width="1" /><polyline fill="none" points="53,2 53,5 52,6 53,5 54,5 55,6 53,4 53,3 54,2 55,3 55,2" stroke="black" stroke-width="1" /><polyline fill="none" points="448,1 448,3 450,3 450,1" stroke="black" stroke-width="1" /><polyline fill="none" points="438,1 437,2 438,3 440,3 440,1" stroke="black" stroke-width="1" /><polyline fill="none" points="291,1 292,1" stroke="black" stroke-width="1" /><polyline fill="none" points="42,1 41,2 41,3 41,2 42,1 44,1 45,2 44,3 43,3 45,3 45,1" stroke="black" stroke-width="1" /><polyline fill="none" points="33,1 32,2 33,3 37,3 36,2 37,1" stroke="black" stroke-width="1" /><polyline fill="none" points="27,1 27,3 29,5 30,5 29,5 27,3 27,2 28,1 30,3 29,2 29,1" stroke="black" stroke-width="1" /><polyline fill="none" points="16,1 15,2 15,3 15,2 16,1 18,1 19,2 18,3 17,3 18,4 18,6 17,7 18,8 18,10 17,11 16,10 16,9 16,15 18,15 18,8 17,7 18,6 18,3 19,2 20,3 22,3 23,4 22,5 20,5 24,5 23,4 24,3 20,3 19,2 19,1" stroke="black" stroke-width="1" /><polyline fill="none" points="10,1 9,2 9,3 10,4 10,5 10,4 11,3 11,2" stroke="black" stroke-width="1" /><polyline fill="none" points="7,1 6,2 5,2 6,2" stroke="black" stroke-width="1" /><polyline fill="none" points="0,1 1,2 0,3 1,2 2,2 1,2" stroke="black" stroke-width="1" /><polyline fill="none" points="353,0 352,1 353,2 354,2 353,2 352,1 353,0 354,0" stroke="black" stroke-width="1" /><polyline fill="none" points="349,0" stroke="black" stroke-width="1" /><polyline fill="none" points="344,0 344,2 346,2 347,1 347,0" stroke="black" stroke-width="1" /><polyline fill="none" points="335,0 337,0" stroke="black" stroke-width="1" /><polyline fill="none" points="320,0 330,0" stroke="black" stroke-width="1" /><polyline fill="none" points="316,0 316,1" stroke="black" stroke-width="1" /><polyline fill="none" points="313,0 314,0" stroke="black" stroke-width="1" /><polyline fill="none" points="309,0 311,0" stroke="black" stroke-width="1" /><polyline fill="none" points="298,0 301,0" stroke="black" stroke-width="1" /><polyline fill="none" points="295,0 296,0" stroke="black" stroke-width="1" /><polyline fill="none" points="287,0 287,1 286,2 285,1 286,2 286,4 285,5 284,4 284,3 284,5 286,5 286,2 287,1 289,1 289,0 288,1" stroke="black" stroke-width="1" /><polyline fill="none" points="281,0 280,1 279,1 278,2 276,2 278,2 279,1 283,1 283,0 282,1" stroke="black" stroke-width="1" /><polyline fill="none" points="272,0 273,1 274,1 273,1" stroke="black" stroke-width="1" /><polyline fill="none" points="269,0 270,0" stroke="black" stroke-width="1" /><polyline fill="none" points="267,0 267,1" stroke="black" stroke-width="1" /><polyline fill="none" points="265,0 265,1" stroke="black" stroke-width="1" /><polyline fill="none" points="262,0" stroke="black" stroke-width="1" /><polyline fill="none" points="259,0 260,0" stroke="black" stroke-width="1" /><polyline fill="none" points="255,0 257,0" stroke="black" stroke-width="1" /><polyline fill="none" points="251,0 251,1 253,1 253,0 252,1" stroke="black" stroke-width="1" /><polyline fill="none" points="236,0 236,1 238,1 239,0 240,0 239,0 238,1 237,1" stroke="black" stroke-width="1" /><polyline fill="none" points="218,0 219,0 220,1 222,1 222,0 221,1 220,1 219,0" stroke="black" stroke-width="1" /><polyline fill="none" points="215,0 214,1" stroke="black" stroke-width="1" /><polyline fill="none" points="212,0" stroke="black" stroke-width="1" /><polyline fill="none" points="200,0 201,1" stroke="black" stroke-width="1" /><polyline fill="none" points="198,0 198,1" stroke="black" stroke-width="1" /><polyline fill="none" points="185,0 186,1 187,1 186,1" stroke="black" stroke-width="1" /><polyline fill="none" points="181,0 181,2 183,2 183,0" stroke="black" stroke-width="1" /><polyline fill="none" points="175,0 175,1 177,1 177,0 176,1" stroke="black" stroke-width="1" /><polyline fill="none" points="158,0 157,1 156,1 156,5 158,5 158,3 159,2 160,2 160,0" stroke="black" stroke-width="1" /><polyline fill="none" points="140,0 140,1 142,1 142,0 141,1" stroke="black" stroke-width="1" /><polyline fill="none" points="119,0 119,1" stroke="black" stroke-width="1" /><polyline fill="none" points="117,0 117,1" stroke="black" stroke-width="1" /><polyline fill="none" points="113,0 114,0" stroke="black" stroke-width="1" /><polyline fill="none" points="105,0 104,1 102,1 104,1 105,0 110,0" stroke="black" stroke-width="1" /><polyline fill="none" points="97,0 97,1 99,1 99,0 98,1" stroke="black" stroke-width="1" /><polyline fill="none" points="87,0 87,2 89,2 89,0" stroke="black" stroke-width="1" /></svg>